<svg width="191" height="38" viewBox="0 0 191 38" fill="none" xmlns="http://www.w3.org/2000/svg">
<path d="M57.208 28V11.2H64.288C65.28 11.2 66.168 11.44 66.952 11.92C67.752 12.384 68.384 13.024 68.848 13.84C69.328 14.64 69.568 15.544 69.568 16.552C69.568 17.592 69.328 18.528 68.848 19.36C68.384 20.176 67.752 20.832 66.952 21.328C66.168 21.808 65.28 22.048 64.288 22.048H60.664V28H57.208ZM60.64 18.904H63.928C64.52 18.904 65.016 18.688 65.416 18.256C65.832 17.808 66.04 17.256 66.04 16.6C66.04 15.944 65.832 15.408 65.416 14.992C65.016 14.56 64.52 14.344 63.928 14.344H60.64V18.904Z" fill="#494D4B"/>
<path d="M77.959 28.24C76.663 28.24 75.511 27.96 74.503 27.4C73.495 26.824 72.703 26.04 72.127 25.048C71.551 24.056 71.263 22.92 71.263 21.64C71.263 20.376 71.551 19.248 72.127 18.256C72.703 17.264 73.495 16.488 74.503 15.928C75.511 15.352 76.663 15.064 77.959 15.064C79.223 15.064 80.359 15.352 81.367 15.928C82.375 16.488 83.167 17.264 83.743 18.256C84.319 19.248 84.607 20.376 84.607 21.64C84.607 22.92 84.319 24.056 83.743 25.048C83.167 26.04 82.375 26.824 81.367 27.4C80.359 27.96 79.223 28.24 77.959 28.24ZM77.959 25.384C78.599 25.384 79.175 25.224 79.687 24.904C80.199 24.568 80.591 24.12 80.863 23.56C81.151 23 81.295 22.36 81.295 21.64C81.295 20.92 81.151 20.28 80.863 19.72C80.591 19.16 80.199 18.72 79.687 18.4C79.175 18.08 78.599 17.92 77.959 17.92C77.303 17.92 76.719 18.08 76.207 18.4C75.695 18.72 75.295 19.16 75.007 19.72C74.719 20.28 74.575 20.92 74.575 21.64C74.575 22.36 74.719 23 75.007 23.56C75.295 24.12 75.695 24.568 76.207 24.904C76.719 25.224 77.303 25.384 77.959 25.384Z" fill="#494D4B"/>
<path d="M92.2122 28.24C91.0922 28.24 90.0922 27.96 89.2122 27.4C88.3322 26.824 87.6362 26.04 87.1242 25.048C86.6282 24.056 86.3802 22.928 86.3802 21.664C86.3802 20.384 86.6282 19.248 87.1242 18.256C87.6362 17.264 88.3322 16.488 89.2122 15.928C90.0922 15.352 91.0922 15.064 92.2122 15.064C92.9802 15.064 93.7082 15.216 94.3962 15.52C95.1002 15.824 95.6682 16.216 96.1002 16.696V10.24H99.388V28H96.2682L96.2202 26.488C95.8042 26.984 95.2362 27.4 94.5162 27.736C93.7962 28.072 93.0282 28.24 92.2122 28.24ZM92.9322 25.504C93.9082 25.504 94.7002 25.152 95.3082 24.448C95.9162 23.728 96.2202 22.8 96.2202 21.664C96.2202 20.512 95.9162 19.584 95.3082 18.88C94.7002 18.16 93.9082 17.8 92.9322 17.8C91.9562 17.8 91.1642 18.16 90.5562 18.88C89.9482 19.584 89.6442 20.512 89.6442 21.664C89.6442 22.8 89.9482 23.728 90.5562 24.448C91.1642 25.152 91.9562 25.504 92.9322 25.504Z" fill="#494D4B"/>
<path d="M108.208 28.24C107.008 28.24 105.928 27.952 104.968 27.376C104.024 26.8 103.272 26.016 102.712 25.024C102.168 24.032 101.896 22.904 101.896 21.64C101.896 20.392 102.168 19.272 102.712 18.28C103.272 17.288 104.024 16.504 104.968 15.928C105.928 15.352 107.008 15.064 108.208 15.064C109.344 15.064 110.376 15.272 111.304 15.688C112.248 16.104 112.984 16.688 113.512 17.44L111.712 19.6C111.376 19.136 110.912 18.744 110.32 18.424C109.728 18.088 109.128 17.92 108.52 17.92C107.848 17.92 107.248 18.088 106.72 18.424C106.208 18.744 105.8 19.184 105.496 19.744C105.208 20.304 105.064 20.936 105.064 21.64C105.064 22.344 105.216 22.976 105.52 23.536C105.824 24.096 106.24 24.544 106.768 24.88C107.296 25.2 107.888 25.36 108.544 25.36C109.168 25.36 109.744 25.224 110.272 24.952C110.8 24.664 111.28 24.264 111.712 23.752L113.512 25.912C112.968 26.616 112.216 27.184 111.256 27.616C110.296 28.032 109.28 28.24 108.208 28.24Z" fill="#494D4B"/>
<path d="M120.472 28.24C119.416 28.24 118.464 27.952 117.616 27.376C116.768 26.8 116.088 26.016 115.576 25.024C115.08 24.032 114.832 22.904 114.832 21.64C114.832 20.344 115.08 19.208 115.576 18.232C116.088 17.24 116.776 16.464 117.64 15.904C118.52 15.344 119.512 15.064 120.616 15.064C121.512 15.064 122.296 15.248 122.968 15.616C123.64 15.968 124.176 16.432 124.576 17.008V15.328H127.84V28H124.552V26.296C124.104 26.856 123.52 27.32 122.8 27.688C122.096 28.056 121.32 28.24 120.472 28.24ZM121.36 25.384C122.336 25.384 123.128 25.04 123.736 24.352C124.344 23.664 124.648 22.76 124.648 21.64C124.648 20.52 124.344 19.616 123.736 18.928C123.128 18.24 122.336 17.896 121.36 17.896C120.4 17.896 119.616 18.24 119.008 18.928C118.416 19.616 118.12 20.52 118.12 21.64C118.12 22.76 118.416 23.664 119.008 24.352C119.616 25.04 120.4 25.384 121.36 25.384Z" fill="#494D4B"/>
<path d="M135.531 28.24C134.363 28.24 133.323 28.048 132.411 27.664C131.499 27.28 130.763 26.736 130.203 26.032L132.267 24.28C132.747 24.808 133.291 25.192 133.899 25.432C134.507 25.656 135.123 25.768 135.747 25.768C136.243 25.768 136.643 25.656 136.947 25.432C137.251 25.208 137.403 24.896 137.403 24.496C137.403 24.144 137.259 23.864 136.971 23.656C136.683 23.464 135.995 23.224 134.907 22.936C133.291 22.52 132.147 21.952 131.475 21.232C130.883 20.592 130.587 19.8 130.587 18.856C130.587 18.104 130.811 17.448 131.259 16.888C131.707 16.312 132.299 15.864 133.035 15.544C133.771 15.224 134.571 15.064 135.435 15.064C136.427 15.064 137.363 15.24 138.243 15.592C139.123 15.944 139.859 16.424 140.451 17.032L138.675 18.976C138.227 18.56 137.707 18.216 137.115 17.944C136.539 17.656 136.003 17.512 135.507 17.512C134.355 17.512 133.779 17.912 133.779 18.712C133.795 19.096 133.971 19.4 134.307 19.624C134.627 19.848 135.355 20.112 136.491 20.416C138.011 20.816 139.083 21.344 139.707 22C140.251 22.56 140.523 23.304 140.523 24.232C140.523 25 140.299 25.688 139.851 26.296C139.419 26.904 138.827 27.384 138.075 27.736C137.323 28.072 136.475 28.24 135.531 28.24Z" fill="#494D4B"/>
<path d="M144.249 28V18.28H141.849V15.328H144.249V12.088H147.513V15.328H150.177V18.28H147.513V28H144.249Z" fill="#494D4B"/>
<path d="M157.996 21.7539H155.195V28H151.68V10.9375H158.02C160.035 10.9375 161.59 11.3867 162.684 12.2852C163.777 13.1836 164.324 14.4531 164.324 16.0938C164.324 17.2578 164.07 18.2305 163.562 19.0117C163.062 19.7852 162.301 20.4023 161.277 20.8633L164.969 27.8359V28H161.195L157.996 21.7539ZM155.195 18.9062H158.031C158.914 18.9062 159.598 18.6836 160.082 18.2383C160.566 17.7852 160.809 17.1641 160.809 16.375C160.809 15.5703 160.578 14.9375 160.117 14.4766C159.664 14.0156 158.965 13.7852 158.02 13.7852H155.195V18.9062ZM180.508 25.8438C179.875 26.6016 178.98 27.1914 177.824 27.6133C176.668 28.0273 175.387 28.2344 173.98 28.2344C172.504 28.2344 171.207 27.9141 170.09 27.2734C168.98 26.625 168.121 25.6875 167.512 24.4609C166.91 23.2344 166.602 21.793 166.586 20.1367V18.9766C166.586 17.2734 166.871 15.8008 167.441 14.5586C168.02 13.3086 168.848 12.3555 169.926 11.6992C171.012 11.0352 172.281 10.7031 173.734 10.7031C175.758 10.7031 177.34 11.1875 178.48 12.1562C179.621 13.1172 180.297 14.5195 180.508 16.3633H177.086C176.93 15.3867 176.582 14.6719 176.043 14.2188C175.512 13.7656 174.777 13.5391 173.84 13.5391C172.645 13.5391 171.734 13.9883 171.109 14.8867C170.484 15.7852 170.168 17.1211 170.16 18.8945V19.9844C170.16 21.7734 170.5 23.125 171.18 24.0391C171.859 24.9531 172.855 25.4102 174.168 25.4102C175.488 25.4102 176.43 25.1289 176.992 24.5664V21.625H173.793V19.0352H180.508V25.8438Z" fill="#494D4B"/>
<path d="M37.125 18.8876C37.1494 22.0542 36.3398 25.1714 34.7774 27.9259C34.575 28.2837 34.3607 28.6337 34.1344 28.9759C34.0225 29.1498 33.8772 29.2998 33.7069 29.4171C33.5367 29.5345 33.3448 29.6169 33.1424 29.6595C32.94 29.7021 32.7312 29.7041 32.5281 29.6655C32.3249 29.6268 32.1315 29.5482 31.9589 29.4341C31.7864 29.3201 31.6382 29.173 31.523 29.0013C31.4077 28.8296 31.3277 28.6367 31.2875 28.4338C31.2474 28.231 31.2479 28.0222 31.2891 27.8195C31.3303 27.6168 31.4113 27.4244 31.5274 27.2532C33.0185 24.9897 33.8685 22.3644 33.987 19.6564C34.1054 16.9484 33.4879 14.2589 32.2001 11.8738C30.9123 9.4887 29.0022 7.49708 26.673 6.11069C24.3438 4.7243 21.6825 3.99493 18.9719 4.0001C13.7618 4.01026 9.1422 6.74541 6.45706 10.8321C4.85189 13.2703 3.99772 16.1259 4.0005 19.045C4.00327 21.9641 4.86288 24.8182 6.47269 27.2532C6.70092 27.5991 6.78239 28.0216 6.69917 28.4275C6.61595 28.8335 6.37486 29.1898 6.02894 29.4181C5.68302 29.6463 5.2606 29.7278 4.85461 29.6445C4.44863 29.5613 4.09233 29.3202 3.8641 28.9743C2.0791 26.2655 1.05381 23.1272 0.895211 19.887C0.736621 16.6468 1.45053 13.4235 2.96245 10.5533C4.47437 7.68306 6.72889 5.27121 9.4907 3.56941C12.2526 1.86761 15.4206 0.938219 18.6641 0.878219C18.7782 0.875879 18.8914 0.875099 19.0047 0.875099C23.7949 0.865229 28.3933 2.75637 31.7905 6.13341C35.1878 9.5105 37.1063 14.0975 37.125 18.8876Z" fill="#494D4B"/>
<path d="M8.06588 21.7944L10.8978 35.8819C11.0678 36.7276 11.8911 37.2753 12.7368 37.1053C13.5825 36.9353 14.1303 36.1119 13.9603 35.2663L11.1284 21.1788C10.9584 20.3331 10.135 19.7853 9.2893 19.9553C8.44363 20.1253 7.89588 20.9487 8.06588 21.7944Z" fill="#D30404"/>
<path d="M10.8438 35.5641L10.1258 35.7086C9.059 35.9234 7.95038 35.7225 7.02677 35.147C6.10316 34.5715 5.43432 33.6648 5.15706 32.6125C5.13597 32.5313 5.11644 32.45 5.10003 32.3672L4.07112 27.2555C3.84815 26.1459 4.07485 24.9931 4.70141 24.0506C5.32796 23.108 6.3031 22.4528 7.41253 22.2289L8.1305 22.0844L9.3899 28.3406L10.8438 35.5641Z" fill="#494D4B"/>
<path d="M10.8438 35.5641L10.1259 35.7086C9.059 35.9234 7.95043 35.7225 7.02682 35.147C6.1032 34.5715 5.43437 33.6649 5.1571 32.6125C6.67448 31.2981 8.08951 29.87 9.3899 28.3407L10.8438 35.5641Z" fill="#494D4B"/>
<path d="M35.1477 26.0875L34.7774 27.9258C34.575 28.2836 34.3607 28.6336 34.1344 28.9758C34.0225 29.1497 33.8772 29.2997 33.7069 29.4171C33.5366 29.5344 33.3448 29.6168 33.1424 29.6594C32.94 29.702 32.7312 29.7041 32.5281 29.6654C32.3249 29.6267 32.1315 29.5481 31.9589 29.4341C31.7864 29.3201 31.6382 29.1729 31.5229 29.0012C31.4077 28.8295 31.3277 28.6366 31.2875 28.4338C31.2474 28.2309 31.2479 28.0221 31.2891 27.8194C31.3303 27.6167 31.4112 27.4243 31.5274 27.2531C32.5865 25.6502 33.3258 23.8577 33.7047 21.9742C34.2927 22.4668 34.7371 23.1089 34.991 23.8327C35.245 24.5566 35.2991 25.3355 35.1477 26.0875Z" fill="#494D4B"/>
<path d="M33.2953 7.82974L31.0539 10.0711C29.6573 8.18253 27.836 6.64894 25.7371 5.59429C23.6383 4.53965 21.3208 3.99352 18.9719 4.00005C13.7617 4.0102 9.1422 6.74536 6.45703 10.832L4.18359 8.55864C5.82274 6.22941 7.98843 4.31987 10.5046 2.9853C13.0207 1.65072 15.8163 0.928775 18.6641 0.878165C18.7781 0.875825 18.8914 0.875045 19.0047 0.875045C21.7591 0.868875 24.4786 1.49226 26.9553 2.69759C29.4321 3.90293 31.6006 5.65833 33.2953 7.82974Z" fill="#E55757"/>
<path d="M26.8464 21.1635L24.0145 35.251C23.8445 36.0967 24.3922 36.9201 25.2379 37.0901C26.0836 37.2601 26.907 36.7123 27.077 35.8666L29.9089 21.7791C30.0789 20.9335 29.5311 20.1101 28.6854 19.9401C27.8397 19.7701 27.0164 20.3178 26.8464 21.1635Z" fill="#D30404"/>
<path d="M33.9289 27.2555L32.9 32.3672C32.6766 33.4767 32.0216 34.4521 31.0791 35.0787C30.1366 35.7054 28.9838 35.9319 27.8742 35.7086L27.1562 35.5641L27.9 31.8711L29.8695 22.0844L30.5875 22.2289C31.6968 22.4531 32.672 23.108 33.2992 24.05C33.3856 24.1799 33.4646 24.3144 33.5359 24.4531C33.9817 25.3154 34.1203 26.3038 33.9289 27.2555Z" fill="#494D4B"/>
<path d="M33.9289 27.2555L32.9 32.3672C32.6766 33.4768 32.0216 34.4521 31.0791 35.0788C30.1366 35.7054 28.9838 35.932 27.8742 35.7086L27.1562 35.5641L27.9 31.8711C30.0403 29.6086 31.9299 27.1215 33.5359 24.4531C33.9817 25.3154 34.1203 26.3039 33.9289 27.2555Z" fill="#494D4B"/>
</svg>
